<?xml version="1.0" encoding="UTF-8"?>
<svg version="1.1" xmlns="http://www.w3.org/2000/svg" width="500" height="500">
<path d="M0 0 C0.66 0.33 1.32 0.66 2 1 C1.46338382 8.30100323 -0.25426356 14.69485312 -2.5625 21.625 C-3.09387573 23.24740601 -3.09387573 23.24740601 -3.63598633 24.90258789 C-4.74569916 28.2723824 -5.87088932 31.63666032 -7 35 C-7.35610352 36.06943848 -7.71220703 37.13887695 -8.07910156 38.24072266 C-9.10458429 41.31004282 -10.14289559 44.37464008 -11.1875 47.4375 C-11.4956665 48.35289551 -11.80383301 49.26829102 -12.12133789 50.21142578 C-15.63259906 60.34432094 -20.15336289 68.75925126 -27 77 C-27.42539062 77.58265625 -27.85078125 78.1653125 -28.2890625 78.765625 C-38.38492034 92.02030953 -56.06164436 99.19621888 -70.39361572 106.95628357 C-76.56082774 110.29661826 -82.69300364 113.69802386 -88.8125 117.125 C-89.83142334 117.69516846 -90.85034668 118.26533691 -91.90014648 118.8527832 C-99.93170231 123.36409525 -107.88378873 128.00455424 -115.82568359 132.67138672 C-124.60214468 137.810264 -133.48707273 142.74151214 -142.39013672 147.65576172 C-148.81217538 151.20736494 -155.1897425 154.81585245 -161.5 158.5625 C-166.10195664 161.29250248 -170.70540761 164.01124114 -175.375 166.625 C-176.20773437 167.09164062 -177.04046875 167.55828125 -177.8984375 168.0390625 C-180 169 -180 169 -183 169 C-183 169.99 -183 170.98 -183 172 C-182.01 172 -181.02 172 -180 172 C-179.67 171.01 -179.34 170.02 -179 169 C-177.50732422 167.91601563 -177.50732422 167.91601563 -175.5546875 166.90625 C-174.81968018 166.52162598 -174.08467285 166.13700195 -173.32739258 165.74072266 C-172.51810303 165.33128418 -171.70881348 164.9218457 -170.875 164.5 C-170.02897217 164.06349121 -169.18294434 163.62698242 -168.3112793 163.17724609 C-160.91143043 159.39077569 -153.41521816 155.80901973 -145.90600586 152.24584961 C-128.21378753 143.84633586 -110.83147906 134.96422551 -93.69580078 125.48242188 C-91.03369241 124.01852747 -88.3611103 122.5761165 -85.68359375 121.140625 C-72.96071894 114.30483429 -60.50581914 107.07009311 -48.109375 99.6640625 C-47.08005859 99.05079102 -46.05074219 98.43751953 -44.99023438 97.80566406 C-43.00995421 96.60986458 -41.04210835 95.3932068 -39.08789062 94.15527344 C-38.19779297 93.59614258 -37.30769531 93.03701172 -36.390625 92.4609375 C-35.61235352 91.96126465 -34.83408203 91.4615918 -34.03222656 90.94677734 C-32 90 -32 90 -29 91 C-29.68580214 94.47483265 -31.05924831 97.23174399 -32.73828125 100.33984375 C-33.5890625 101.91983154 -33.5890625 101.91983154 -34.45703125 103.53173828 C-35.06933594 104.65563965 -35.68164062 105.77954102 -36.3125 106.9375 C-36.93898438 108.09233887 -37.56546875 109.24717773 -38.2109375 110.43701172 C-42.24966593 117.86495537 -46.3375585 125.26562143 -50.5 132.625 C-50.96704346 133.45765381 -51.43408691 134.29030762 -51.9152832 135.14819336 C-55.77254241 141.89960344 -59.94886569 148.61232132 -65.875 153.75 C-66.47054688 154.28109375 -67.06609375 154.8121875 -67.6796875 155.359375 C-73.38260432 159.39174043 -79.27182127 161.62617818 -86.140625 162.859375 C-86.97217102 163.01726501 -87.80371704 163.17515503 -88.66046143 163.33782959 C-103.46551097 166.08663304 -118.35101194 168.422796 -133.21331787 170.83740234 C-137.48508709 171.53221623 -141.75618281 172.23114597 -146.02734375 172.9296875 C-154.3509237 174.29039457 -162.67521648 175.6466759 -171 177 C-168.85601074 177 -166.78210839 176.818188 -164.64672852 176.62036133 C-163.73759705 176.53621979 -162.82846558 176.45207825 -161.89178467 176.36538696 C-156.44813517 175.85342167 -151.00500091 175.33654608 -145.5625 174.8125 C-144.41373383 174.70217438 -143.26496765 174.59184875 -142.08139038 174.47817993 C-125.8393937 172.90596203 -109.68491883 171.04959685 -93.56274414 168.5246582 C-87.29777431 167.55460088 -81.34281514 166.71791801 -75 167 C-75 170 -75 170 -76.14453125 171.5078125 C-80.52764296 175.75748052 -85.13639676 179.63650802 -89.890625 183.46484375 C-94.01966398 186.80529519 -98.03104945 190.28281294 -102.05297852 193.75073242 C-103.16329085 194.70759872 -104.27531312 195.662485 -105.38916016 196.61523438 C-106.45892539 197.53486281 -107.52123066 198.46324436 -108.57568359 199.40039062 C-114.44066233 204.51469701 -119.17550437 205.45274801 -126.79736328 205.31201172 C-132.04142293 204.80111766 -136.57881022 203.01902743 -141.4375 201.0625 C-143.60063643 200.23632982 -145.76611623 199.41627568 -147.93359375 198.6015625 C-149.06780762 198.17520508 -150.20202148 197.74884766 -151.37060547 197.30957031 C-157.84624963 194.97300666 -164.41924892 192.95478404 -171 190.9375 C-171.64613251 190.73818878 -172.29226501 190.53887756 -172.95797729 190.33352661 C-178.88107579 188.09265718 -178.88107579 188.09265718 -185 187 C-184.22398437 187.25652344 -183.44796875 187.51304687 -182.6484375 187.77734375 C-165.37780433 193.89831995 -147.11854246 205.70820414 -138 222 C-135.81119217 228.5664235 -136.48574169 233.60523938 -139.375 239.75 C-142.81096214 246.10693229 -147.08956232 251.68582403 -151.61621094 257.28076172 C-153.06588541 259.08185692 -154.49235944 260.8994143 -155.9140625 262.72265625 C-160.19968043 268.21652582 -164.51764594 273.66463062 -169 279 C-169.66 278.67 -170.32 278.34 -171 278 C-170.9278125 277.23300781 -170.855625 276.46601563 -170.78125 275.67578125 C-168.23931562 245.27848262 -170.94545047 217.36017635 -191.30078125 192.92578125 C-192.49039212 191.5775556 -193.7286058 190.2713942 -195 189 C-194.60844727 189.76570313 -194.60844727 189.76570313 -194.20898438 190.546875 C-188.87259684 201.08881044 -184.16055442 211.65026877 -180.4375 222.875 C-180.10363281 223.87789062 -179.76976562 224.88078125 -179.42578125 225.9140625 C-174.96584745 239.78108355 -174.14738688 253.39091166 -180 267 C-181.56037197 269.46451273 -183.16889812 271.74994274 -185.0234375 274 C-186.27540052 276.01672743 -186.27540052 276.01672743 -185.37890625 278.43359375 C-174.98586667 297.77701303 -157.45359376 311.77231536 -138.52050781 322.1472168 C-136.96733055 323.02040548 -135.47566331 324.00138302 -134 325 C-134 325.99 -134 326.98 -134 328 C-138.31226745 328.11719343 -142.62411934 328.18758416 -146.9375 328.25 C-148.14986328 328.28351563 -149.36222656 328.31703125 -150.61132812 328.3515625 C-161.25993036 328.4669945 -168.32834936 326.26615356 -176.10546875 318.94921875 C-181.86695461 313.02142196 -185.96931354 306.55960626 -189.875 299.3125 C-190.26872803 298.58756348 -190.66245605 297.86262695 -191.06811523 297.11572266 C-193.18139647 293.07110752 -194.54964249 289.61253252 -195 285 C-195.66 285.33 -196.32 285.66 -197 286 C-196.51255388 292.38902588 -194.28503709 297.39873618 -191.5 303.125 C-191.05003662 304.05570312 -190.60007324 304.98640625 -190.13647461 305.9453125 C-184.37714722 317.59543569 -176.88545433 327.45200836 -168.3828125 337.22265625 C-166.4889722 339.43006683 -164.70461937 341.64627061 -163 344 C-165 346 -165 346 -167.3203125 346.1171875 C-173.69729788 345.5665286 -178.64485777 344.57009482 -184 341 C-184.66773438 340.56171875 -185.33546875 340.1234375 -186.0234375 339.671875 C-195.41690944 332.54579284 -198.9841991 321.07455281 -201.9375 310.125 C-202.14914795 309.34092773 -202.3607959 308.55685547 -202.57885742 307.74902344 C-203.83377791 302.70797203 -204.19514186 298.19195611 -204 293 C-210.71623595 298.23549102 -216.89826096 303.67234704 -222.76269531 309.83691406 C-225.95093205 313.13972461 -229.12923876 315.59292396 -233 318 C-234 315 -234 315 -233.23071289 312.8972168 C-232.8155542 312.08937744 -232.40039551 311.28153809 -231.97265625 310.44921875 C-231.5139917 309.53470947 -231.05532715 308.6202002 -230.58276367 307.67797852 C-230.08107666 306.69112061 -229.57938965 305.7042627 -229.0625 304.6875 C-213.34579759 272.7048758 -206.07386482 238.8592426 -203.6875 203.4375 C-203.6419397 202.76813416 -203.59637939 202.09876831 -203.54943848 201.40911865 C-203.15432943 195.70897552 -203.15432943 195.70897552 -203 190 C-203.33 189.67 -203.66 189.34 -204 189 C-204.11214844 190.7648877 -204.11214844 190.7648877 -204.2265625 192.56542969 C-205.01653377 199.58872532 -207.28723599 206.23197081 -209.375 212.953125 C-209.82351772 214.41757681 -210.271338 215.88224238 -210.71850586 217.34710693 C-211.89820016 221.20474165 -213.08751324 225.05934466 -214.27886963 228.91339111 C-215.45620375 232.72819283 -216.62412348 236.54587194 -217.79296875 240.36328125 C-223.4809157 258.92356545 -229.23407454 277.46381345 -235 296 C-236.32 296 -237.64 296 -239 296 C-246.07589874 278.18047685 -251.40851796 259.7846812 -256.9677124 241.45281982 C-258.78561856 235.46239565 -260.6122997 229.47464004 -262.43804932 223.48660278 C-263.40530524 220.31417758 -264.37014875 217.14103544 -265.33294678 213.96725464 C-267.46568826 206.94668864 -269.62746427 199.94422204 -272 193 C-270.66595609 218.1597428 -267.98415886 242.70996079 -261 267 C-260.68772461 268.08958008 -260.68772461 268.08958008 -260.36914062 269.20117188 C-256.07643816 283.79636027 -250.57934599 299.8696584 -242.28198242 312.64526367 C-241.85892822 313.42232666 -241.43587402 314.19938965 -241 315 C-241.33 315.99 -241.66 316.98 -242 318 C-247.12831014 314.3992716 -251.6050708 310.52382327 -255.97265625 306.03515625 C-259.14856883 302.84700509 -262.48149107 299.80778768 -266 297 C-266.33 297 -266.66 297 -267 297 C-267.15855469 298.00417969 -267.31710937 299.00835937 -267.48046875 300.04296875 C-270.03580765 315.35242186 -274.35030826 330.93135647 -287 341 C-293.57824177 345.18269708 -300.34359064 345.74089985 -308 346 C-308 342 -308 342 -306.1640625 339.9140625 C-305.32617188 339.15867187 -304.48828125 338.40328125 -303.625 337.625 C-291.81014038 326.22674333 -278.71244492 308.23408118 -275 292 C-275.34605592 289.79789914 -275.34605592 289.79789914 -276 288 C-276.49628906 289.02738281 -276.99257813 290.05476563 -277.50390625 291.11328125 C-292.17413174 321.18142199 -292.17413174 321.18142199 -307 327 C-310.29734646 328.09911549 -312.72958745 328.1139456 -316.19921875 328.09765625 C-317.40771484 328.09443359 -318.61621094 328.09121094 -319.86132812 328.08789062 C-321.12396484 328.07951172 -322.38660156 328.07113281 -323.6875 328.0625 C-325.59885742 328.05573242 -325.59885742 328.05573242 -327.54882812 328.04882812 C-330.69926564 328.03702873 -333.84960949 328.02056597 -337 328 C-337 327.01 -337 326.02 -337 325 C-335.4621582 323.73242187 -335.4621582 323.73242187 -333.30078125 322.46875 C-332.11452148 321.75609985 -332.11452148 321.75609985 -330.90429688 321.02905273 C-330.04900391 320.52446533 -329.19371094 320.01987793 -328.3125 319.5 C-319.81901 314.30997242 -312.28852722 308.76305263 -305 302 C-304.51063965 301.5477002 -304.0212793 301.09540039 -303.51708984 300.62939453 C-296.77558345 294.33895945 -291.15544355 287.63714703 -286 280 C-287.37895018 276.89394886 -288.99500111 274.84348141 -291.375 272.4375 C-298.57008831 264.23600059 -299.81327109 255.06882366 -299.3828125 244.46484375 C-298.0961653 225.91365688 -290.01018905 208.49435378 -282 192 C-299.43115791 209.54010265 -305.30336807 232.50813549 -305.24145508 256.49853516 C-305.15990121 263.3750326 -304.73398385 270.16285507 -304 277 C-305.32 277 -306.64 277 -308 277 C-309.98731588 274.94192829 -311.66112779 272.95849479 -313.375 270.6875 C-313.88740234 270.02613037 -314.39980469 269.36476074 -314.92773438 268.68334961 C-316.6341665 266.46708759 -318.31801596 264.23486275 -320 262 C-320.61391602 261.19272461 -321.22783203 260.38544922 -321.86035156 259.55371094 C-323.75056897 257.06422748 -325.62797472 254.56568637 -327.5 252.0625 C-328.08700684 251.28285889 -328.67401367 250.50321777 -329.27880859 249.69995117 C-334.48588447 242.64459656 -338.79689269 236.46236432 -338.3828125 227.44921875 C-336.54534385 215.6931693 -325.94320447 207.6415603 -317 201 C-306.91412479 194.13408744 -295.51447925 186.49076389 -283 186 C-283 185.01 -283 184.02 -283 183 C-285.64 183.33 -288.28 183.66 -291 184 C-291.33 184.99 -291.66 185.98 -292 187 C-294.23608398 188.1472168 -294.23608398 188.1472168 -297.30859375 189.26171875 C-299.07952393 189.90633057 -299.07952393 189.90633057 -300.88623047 190.56396484 C-302.25683786 191.0444987 -303.62813616 191.52306497 -305 192 C-305.7455011 192.2615387 -306.4910022 192.52307739 -307.25909424 192.7925415 C-312.29461669 194.55252615 -317.34642612 196.25809097 -322.41137695 197.93139648 C-324.18309979 198.52023042 -325.95232495 199.11663188 -327.71899414 199.72045898 C-350.72053556 207.5774948 -350.72053556 207.5774948 -360.9375 203.75 C-366.13364709 200.72071093 -370.37170186 196.21446175 -374.703125 192.0859375 C-377.54695275 189.3890904 -380.50161567 186.88797676 -383.5625 184.4375 C-389.63316516 179.56664182 -395.31420941 174.30872245 -401 169 C-400.67 168.34 -400.34 167.68 -400 167 C-389.24887515 167.62382443 -378.62761051 169.01963693 -367.95510864 170.412323 C-350.18440632 172.72114623 -332.40548829 174.77414473 -314.5625 176.4375 C-313.62218933 176.5268985 -312.68187866 176.616297 -311.71307373 176.70840454 C-309.08141496 176.95688921 -306.4491695 177.19713161 -303.81640625 177.43359375 C-303.03335617 177.50720123 -302.25030609 177.58080872 -301.44352722 177.65664673 C-299.63213339 177.81283448 -297.81602174 177.91278043 -296 178 C-295.67 177.67 -295.34 177.34 -295 177 C-296.2595752 177.06026367 -297.51915039 177.12052734 -298.81689453 177.18261719 C-307.28971684 177.17186323 -315.59970115 175.47972823 -323.9296875 174.078125 C-325.76987812 173.7733998 -327.61014031 173.46910651 -329.45046997 173.16522217 C-333.29585805 172.52827049 -337.14018853 171.88534967 -340.98388672 171.23828125 C-345.87921965 170.41477679 -350.77704892 169.60737912 -355.67582512 168.80464554 C-359.47425846 168.18015082 -363.27110786 167.54641681 -367.06756973 166.91005707 C-368.87136102 166.60893371 -370.67564271 166.31073123 -372.48043442 166.01566315 C-389.05759145 163.29689821 -404.95783604 160.35014484 -416.1875 146.625 C-420.07446301 140.9956053 -423.20178279 134.91461808 -426.43408203 128.89453125 C-429.22172722 123.74169039 -432.07705354 118.62622249 -434.92578125 113.50698853 C-435.92229838 111.7148388 -436.91652421 109.92143618 -437.91015625 108.12768555 C-438.52632813 107.0169165 -439.1425 105.90614746 -439.77734375 104.76171875 C-440.32640381 103.77131592 -440.87546387 102.78091309 -441.44116211 101.76049805 C-442.48738327 99.90777719 -443.58199997 98.08163064 -444.72094727 96.28442383 C-446 94 -446 94 -445.6875 91.6875 C-445.460625 91.130625 -445.23375 90.57375 -445 90 C-441.45297374 91.33409358 -438.26093826 92.90907593 -435 94.8359375 C-434.04109863 95.39958008 -433.08219727 95.96322266 -432.09423828 96.54394531 C-431.07313965 97.14819336 -430.05204102 97.75244141 -429 98.375 C-426.83115721 99.64916639 -424.66187829 100.92259065 -422.4921875 102.1953125 C-420.85781738 103.1548584 -420.85781738 103.1548584 -419.19042969 104.13378906 C-411.16755076 108.82669437 -403.0869678 113.41869667 -395 118 C-393.90075195 118.62503418 -393.90075195 118.62503418 -392.77929688 119.26269531 C-374.36641297 129.71347828 -355.4903422 139.35085278 -336.52099609 148.74755859 C-331.18864922 151.39669083 -325.86585182 154.06502783 -320.54092407 156.72903442 C-317.28795327 158.35632241 -314.03458984 159.98282496 -310.78125 161.609375 C-305.85416667 164.07291667 -300.92708333 166.53645833 -296 169 C-296 169.66 -296 170.32 -296 171 C-294.7934375 171.37125 -294.7934375 171.37125 -293.5625 171.75 C-289.25675857 173.26078647 -285.14635993 175.10188856 -281 177 C-281 176.01 -281 175.02 -281 174 C-281.88300781 173.71125 -282.76601563 173.4225 -283.67578125 173.125 C-308.16971784 164.83563015 -330.40989665 150.0172941 -352.6953125 137.12890625 C-354.85934582 135.8775537 -357.02340803 134.62625112 -359.1875 133.375 C-360.25282959 132.75866699 -361.31815918 132.14233398 -362.41577148 131.50732422 C-369.78393573 127.25359639 -377.19257616 123.0777598 -384.625 118.9375 C-395.89869834 112.6564395 -407.06095824 106.19529414 -418.18286133 99.6496582 C-420.17802948 98.48132895 -422.17841137 97.32188234 -424.18237305 96.16870117 C-425.23593994 95.56131104 -426.28950684 94.9539209 -427.375 94.328125 C-428.32761719 93.78188477 -429.28023438 93.23564453 -430.26171875 92.67285156 C-454.62033467 77.79185688 -464.41686327 50.85782173 -471.28125 24.34375 C-471.90834104 21.42641343 -472.18542331 18.96677289 -472 16 C-472.66 16 -473.32 16 -474 16 C-475.3271261 12.0186217 -475.06915913 8.14954773 -475 4 C-474.01 4 -473.02 4 -472 4 C-470.17578125 5.8984375 -470.17578125 5.8984375 -468.3125 8.375 C-467.68988281 9.18710937 -467.06726563 9.99921875 -466.42578125 10.8359375 C-465 13 -465 13 -465 15 C-464.34 15 -463.68 15 -463 15 C-461.58561594 16.57286684 -460.24395599 18.21139996 -458.9375 19.875 C-447.40128716 34.24948742 -434.64121562 47.7555464 -420 59 C-419.4524707 59.42925781 -418.90494141 59.85851562 -418.34082031 60.30078125 C-396.62887128 77.30627911 -372.75378948 91.0996747 -349 105 C-347.88351074 105.65419922 -346.76702148 106.30839844 -345.61669922 106.98242188 C-342.57904233 108.76125116 -339.53985809 110.53743549 -336.5 112.3125 C-335.0756665 113.14551636 -335.0756665 113.14551636 -333.62255859 113.99536133 C-328.62779026 116.90990226 -323.61473348 119.78632461 -318.57421875 122.62109375 C-296.38616263 135.16758079 -281.7881866 148.70064306 -274.19140625 173.65625 C-273.73999787 175.42452559 -273.35790889 177.21045555 -273 179 C-265.09300473 176.27468644 -260.20038125 172.36434011 -255.90234375 165.16015625 C-252.73090805 158.18299771 -252.89007115 149.57643742 -255.125 142.375 C-258.0534205 138.66566736 -260.90022493 137.2958774 -265.578125 136.63671875 C-267.35818312 136.46634176 -269.14110154 136.32298017 -270.92578125 136.2109375 C-273 136 -273 136 -274 135 C-273.91644633 130.65520924 -273.45619765 128.54023405 -270.625 125.1875 C-266.96974423 122.46813097 -263.01464751 122.14950988 -258.59765625 121.53125 C-255.76363299 121.12354814 -255.76363299 121.12354814 -252.9375 118.9375 C-247.76312621 115.52461516 -242.78172377 115.45648358 -236.78125 116.62890625 C-226.08285699 119.61595757 -217.73050463 124.24874786 -212 134 C-209.31352887 138.929813 -209.71406354 144.09427395 -209.625 149.5625 C-209.2980381 160.34959161 -207.79784592 168.70688125 -202 178 C-201.72027344 177.07960937 -201.44054687 176.15921875 -201.15234375 175.2109375 C-196.85168675 161.45726058 -191.67442009 149.11990476 -181 139 C-180.53279541 138.54955322 -180.06559082 138.09910645 -179.58422852 137.63500977 C-174.27702647 132.77804756 -168.18541032 129.44173079 -161.9375 125.9375 C-160.18730093 124.94402175 -158.43876164 123.94766392 -156.6902771 122.95117188 C-155.50783348 122.27747933 -154.32490979 121.60462872 -153.14151001 120.93261719 C-147.64145803 117.80725117 -142.18980391 114.60377089 -136.75 111.375 C-135.85990234 110.84704834 -134.96980469 110.31909668 -134.05273438 109.77514648 C-132.2649884 108.71460546 -130.47738984 107.65381588 -128.68994141 106.59277344 C-125.95720245 104.97465863 -123.21959504 103.36508837 -120.48046875 101.7578125 C-81.52278777 79.0266788 -81.52278777 79.0266788 -46.25390625 51.0703125 C-44.24696517 49.22684843 -42.20087758 47.45220907 -40.125 45.6875 C-30.84233749 37.56751441 -22.5902766 28.71322753 -15 19 C-14.32710938 18.15953125 -13.65421875 17.3190625 -12.9609375 16.453125 C-10.27172213 13.06670565 -7.82439957 9.93964544 -6 6 C-5.34 6 -4.68 6 -4 6 C-3.71125 5.38125 -3.4225 4.7625 -3.125 4.125 C-2 2 -2 2 0 0 Z " fill="#0CC0DE" transform="translate(486,38)"/>
<path d="M0 0 C6.39281203 4.4140845 10.02664969 10.5646316 12.66796875 17.83984375 C13.67356148 24.38211178 12.84569646 29.70736229 10.75 35.875 C10.40340332 36.92469971 10.40340332 36.92469971 10.04980469 37.99560547 C9.37967428 40.00182575 8.69095023 42.00087876 8 44 C7.7009375 44.91265625 7.401875 45.8253125 7.09375 46.765625 C2.44989618 59.75121624 -7.68644424 75.39849254 -19.9453125 82.171875 C-23.93897432 83.78148775 -27.72688858 83.92173789 -32 84 C-32.74942871 84.02433105 -33.49885742 84.04866211 -34.27099609 84.07373047 C-36.84731558 84.15403781 -39.42280925 84.20647368 -42 84.25 C-42.84989502 84.27167236 -43.69979004 84.29334473 -44.57543945 84.31567383 C-45.77559692 84.32183716 -45.77559692 84.32183716 -47 84.328125 C-47.721875 84.3374707 -48.44375 84.34681641 -49.1875 84.35644531 C-49.785625 84.23881836 -50.38375 84.12119141 -51 84 C-51.66 83.01 -52.32 82.02 -53 81 C-48.25981901 77.80476689 -43.49285862 74.68526041 -38.625 71.6875 C-25.58320107 63.37335318 -11.91365015 52.07090753 -4.05078125 38.51171875 C-3.70402344 38.01285156 -3.35726562 37.51398438 -3 37 C-2.34 37 -1.68 37 -1 37 C-0.896875 36.360625 -0.79375 35.72125 -0.6875 35.0625 C-0.1011974 32.45078841 0.65385179 30.13235474 1.5625 27.625 C4.16482281 19.7793832 2.6585544 14.32664606 -0.22265625 6.76953125 C-1.01438396 3.94875262 -1.02214691 2.69358212 0 0 Z " fill="#0CC0DE" transform="translate(225,342)"/>
<path d="M0 0 C0.66 0.33 1.32 0.66 2 1 C1.47743701 4.23989052 0.58669207 7.13021545 -0.5625 10.1875 C-2.73432665 16.67072511 -3.12577681 22.88079168 -0.5625 29.3125 C10.28879067 50.90085723 28.59476929 65.98203612 49.17431641 77.84204102 C50.8300976 78.81873754 52.42303329 79.90058041 54 81 C54 81.99 54 82.98 54 84 C50.06275931 84.11786788 46.12598239 84.18780174 42.1875 84.25 C41.08728516 84.28351563 39.98707031 84.31703125 38.85351562 84.3515625 C28.23384165 84.47686839 19.52335336 82.33433787 11.7578125 74.8203125 C11.17773438 74.21960938 10.59765625 73.61890625 10 73 C9.50242187 72.52304687 9.00484375 72.04609375 8.4921875 71.5546875 C-2.5921258 59.98581406 -11.00516128 40.6841937 -12.25 24.8125 C-11.56913526 14.42931268 -7.35108663 7.15418252 0 0 Z " fill="#0CC0DE" transform="translate(271,342)"/>
<path d="M0 0 C3.46706574 2.67679217 3.90187839 5.71753144 4.82421875 9.87890625 C4.97589005 10.55886658 5.12756134 11.2388269 5.28382874 11.93939209 C5.7677897 14.14400036 6.2305216 16.35214909 6.6875 18.5625 C6.84408081 19.31131439 7.00066162 20.06012878 7.1619873 20.83163452 C13.4857155 51.4189114 13.4857155 51.4189114 5 66 C4.02717937 67.35329147 3.03559357 68.69411955 2 70 C-0.53786081 69.62742043 -1.70952365 69.33621434 -3.4140625 67.36328125 C-4.01347656 66.34814453 -4.01347656 66.34814453 -4.625 65.3125 C-5.02976563 64.64863281 -5.43453125 63.98476563 -5.8515625 63.30078125 C-13.4040967 48.17002396 -8.58971324 32.55204627 -5 17 C-4.69425049 15.67282959 -4.69425049 15.67282959 -4.38232422 14.31884766 C-1.35289634 1.35289634 -1.35289634 1.35289634 0 0 Z " fill="#0CBFDE" transform="translate(248,392)"/>
<path d="M0 0 C0.66 0.33 1.32 0.66 2 1 C2.81947671 18.98296118 0.6274694 41.27549979 -11.5 55.625 C-12.64101832 56.77600535 -13.80606946 57.9039772 -15 59 C-15.49371094 59.48855469 -15.98742187 59.97710937 -16.49609375 60.48046875 C-22.65211487 66.16936632 -28.95550471 67.36285301 -37.09375 67.10546875 C-38.03734375 67.05326172 -38.03734375 67.05326172 -39 67 C-39 63 -39 63 -36.83984375 60.5546875 C-35.88207031 59.67039062 -34.92429688 58.78609375 -33.9375 57.875 C-18.47098254 42.97421076 -10.16096448 22.06153974 -1.76513672 2.61621094 C-1 1 -1 1 0 0 Z " fill="#0CC0DE" transform="translate(241,376)"/>
<path d="M0 0 C3.47349637 1.73674818 3.921535 6.04968325 5.125 9.5625 C13.03048431 31.77155125 25.07096205 49.66979668 41 67 C40.67 67.66 40.34 68.32 40 69 C30.32013359 69.53556638 23.52229122 67.88399182 15.87890625 61.78125 C4.7310457 51.21280008 -0.48932457 32.64054682 -1.09375 17.67944336 C-1.13336066 15.1604527 -1.13655621 12.64425471 -1.125 10.125 C-1.12886719 9.25875 -1.13273438 8.3925 -1.13671875 7.5 C-1.13542969 6.67757813 -1.13414062 5.85515625 -1.1328125 5.0078125 C-1.13168457 4.26160645 -1.13055664 3.51540039 -1.12939453 2.74658203 C-1 1 -1 1 0 0 Z " fill="#0CC0DE" transform="translate(255,374)"/>
<path d="M0 0 C3.3 0.33 6.6 0.66 10 1 C10 1.66 10 2.32 10 3 C6.7 3 3.4 3 0 3 C0 2.01 0 1.02 0 0 Z " fill="#E0F7FB" transform="translate(237,164)"/>
<path d="M0 0 C1.65 0.99 3.3 1.98 5 3 C4.67 3.66 4.34 4.32 4 5 C1.69 5 -0.62 5 -3 5 C-2.505 4.54625 -2.01 4.0925 -1.5 3.625 C0.22609337 2.12364481 0.22609337 2.12364481 0 0 Z " fill="#2BC7E3" transform="translate(321,421)"/>
<path d="M0 0 C3.63 0.66 7.26 1.32 11 2 C11 2.33 11 2.66 11 3 C7.04 3 3.08 3 -1 3 C-0.67 2.01 -0.34 1.02 0 0 Z " fill="#91E2F0" transform="translate(191,215)"/>
<path d="M0 0 C0.66 0.33 1.32 0.66 2 1 C1.34 1.66 0.68 2.32 0 3 C0.33 3.66 0.66 4.32 1 5 C-0.65 4.67 -2.3 4.34 -4 4 C-2.68 2.68 -1.36 1.36 0 0 Z " fill="#36CBE4" transform="translate(152,361)"/>
</svg>
